<mxfile host="app.diagrams.net" agent="Mozilla/5.0 (X11; Linux x86_64) AppleWebKit/537.36 (KHTML, like Gecko) Chrome/127.0.0.0 Safari/537.36" version="24.7.6">
  <diagram id="C5RBs43oDa-KdzZeNtuy" name="Page-1">
    <mxGraphModel dx="1924" dy="343" grid="1" gridSize="10" guides="1" tooltips="1" connect="1" arrows="1" fold="1" page="1" pageScale="1" pageWidth="827" pageHeight="1169" math="0" shadow="0">
      <root>
        <mxCell id="WIyWlLk6GJQsqaUBKTNV-0" />
        <mxCell id="WIyWlLk6GJQsqaUBKTNV-1" parent="WIyWlLk6GJQsqaUBKTNV-0" />
        <mxCell id="zkfFHV4jXpPFQw0GAbJ--0" value="socket" style="swimlane;fontStyle=2;align=center;verticalAlign=top;childLayout=stackLayout;horizontal=1;startSize=26;horizontalStack=0;resizeParent=1;resizeLast=0;collapsible=1;marginBottom=0;rounded=0;shadow=0;strokeWidth=1;" parent="WIyWlLk6GJQsqaUBKTNV-1" vertex="1">
          <mxGeometry x="210" width="230" height="340" as="geometry">
            <mxRectangle x="230" y="140" width="160" height="26" as="alternateBounds" />
          </mxGeometry>
        </mxCell>
        <mxCell id="zkfFHV4jXpPFQw0GAbJ--1" value="void create()" style="text;align=left;verticalAlign=top;spacingLeft=4;spacingRight=4;overflow=hidden;rotatable=0;points=[[0,0.5],[1,0.5]];portConstraint=eastwest;" parent="zkfFHV4jXpPFQw0GAbJ--0" vertex="1">
          <mxGeometry y="26" width="230" height="26" as="geometry" />
        </mxCell>
        <mxCell id="zkfFHV4jXpPFQw0GAbJ--2" value="void bind(int port)" style="text;align=left;verticalAlign=top;spacingLeft=4;spacingRight=4;overflow=hidden;rotatable=0;points=[[0,0.5],[1,0.5]];portConstraint=eastwest;rounded=0;shadow=0;html=0;" parent="zkfFHV4jXpPFQw0GAbJ--0" vertex="1">
          <mxGeometry y="52" width="230" height="26" as="geometry" />
        </mxCell>
        <mxCell id="zkfFHV4jXpPFQw0GAbJ--3" value="void listen()&#xa;&#xa;int accept()&#xa;&#xa;void connect(str ip ,int port)&#xa;&#xa;void send(void * data ,int size)&#xa;&#xa;void recv(void *data ,int size)&#xa;&#xa;bool is_valid()" style="text;align=left;verticalAlign=top;spacingLeft=4;spacingRight=4;overflow=hidden;rotatable=0;points=[[0,0.5],[1,0.5]];portConstraint=eastwest;rounded=0;shadow=0;html=0;" parent="zkfFHV4jXpPFQw0GAbJ--0" vertex="1">
          <mxGeometry y="78" width="230" height="132" as="geometry" />
        </mxCell>
        <mxCell id="zkfFHV4jXpPFQw0GAbJ--4" value="" style="line;html=1;strokeWidth=1;align=left;verticalAlign=middle;spacingTop=-1;spacingLeft=3;spacingRight=3;rotatable=0;labelPosition=right;points=[];portConstraint=eastwest;" parent="zkfFHV4jXpPFQw0GAbJ--0" vertex="1">
          <mxGeometry y="210" width="230" height="90" as="geometry" />
        </mxCell>
        <mxCell id="2EZz9RA_f9-rvHyePm-9-2" value="int m_sock&lt;div&gt;sockadder_in m_adder&lt;/div&gt;" style="text;html=1;align=left;verticalAlign=middle;resizable=0;points=[];autosize=1;strokeColor=none;fillColor=none;" parent="zkfFHV4jXpPFQw0GAbJ--0" vertex="1">
          <mxGeometry y="300" width="230" height="40" as="geometry" />
        </mxCell>
        <mxCell id="2EZz9RA_f9-rvHyePm-9-4" value="client" style="swimlane;fontStyle=0;childLayout=stackLayout;horizontal=1;startSize=30;fillColor=none;horizontalStack=0;resizeParent=1;resizeParentMax=0;resizeLast=0;collapsible=1;marginBottom=0;whiteSpace=wrap;html=1;" parent="WIyWlLk6GJQsqaUBKTNV-1" vertex="1">
          <mxGeometry x="-290" y="140" width="320" height="230" as="geometry" />
        </mxCell>
        <mxCell id="2EZz9RA_f9-rvHyePm-9-5" value="void send(void *data,int size,int source,int dest id)" style="text;strokeColor=none;fillColor=none;align=left;verticalAlign=top;spacingLeft=4;spacingRight=4;overflow=hidden;rotatable=0;points=[[0,0.5],[1,0.5]];portConstraint=eastwest;whiteSpace=wrap;html=1;" parent="2EZz9RA_f9-rvHyePm-9-4" vertex="1">
          <mxGeometry y="30" width="320" height="26" as="geometry" />
        </mxCell>
        <mxCell id="2EZz9RA_f9-rvHyePm-9-6" value="void send_async(....)" style="text;strokeColor=none;fillColor=none;align=left;verticalAlign=top;spacingLeft=4;spacingRight=4;overflow=hidden;rotatable=0;points=[[0,0.5],[1,0.5]];portConstraint=eastwest;whiteSpace=wrap;html=1;" parent="2EZz9RA_f9-rvHyePm-9-4" vertex="1">
          <mxGeometry y="56" width="320" height="26" as="geometry" />
        </mxCell>
        <mxCell id="2EZz9RA_f9-rvHyePm-9-7" value="&lt;div&gt;&lt;br&gt;&lt;/div&gt;&lt;div&gt;void listen(void*data ,int size)&lt;/div&gt;&lt;div&gt;&lt;br&gt;&lt;/div&gt;&lt;div&gt;void listen_async(....)&lt;/div&gt;&lt;div&gt;int get_id()&lt;/div&gt;&lt;div&gt;&lt;br&gt;&lt;/div&gt;" style="text;strokeColor=none;fillColor=none;align=left;verticalAlign=top;spacingLeft=4;spacingRight=4;overflow=hidden;rotatable=0;points=[[0,0.5],[1,0.5]];portConstraint=eastwest;whiteSpace=wrap;html=1;" parent="2EZz9RA_f9-rvHyePm-9-4" vertex="1">
          <mxGeometry y="82" width="320" height="48" as="geometry" />
        </mxCell>
        <mxCell id="2EZz9RA_f9-rvHyePm-9-10" value="" style="line;strokeWidth=1;fillColor=none;align=left;verticalAlign=middle;spacingTop=-1;spacingLeft=3;spacingRight=3;rotatable=0;labelPosition=right;points=[];portConstraint=eastwest;strokeColor=inherit;" parent="2EZz9RA_f9-rvHyePm-9-4" vertex="1">
          <mxGeometry y="130" width="320" height="60" as="geometry" />
        </mxCell>
        <mxCell id="2EZz9RA_f9-rvHyePm-9-12" value="Socket m_client_socket&lt;div&gt;int m_id&lt;/div&gt;" style="text;html=1;align=center;verticalAlign=middle;resizable=0;points=[];autosize=1;strokeColor=none;fillColor=none;" parent="2EZz9RA_f9-rvHyePm-9-4" vertex="1">
          <mxGeometry y="190" width="320" height="40" as="geometry" />
        </mxCell>
        <mxCell id="2EZz9RA_f9-rvHyePm-9-8" value="1" style="endArrow=open;html=1;endSize=12;startArrow=diamondThin;startSize=14;startFill=1;edgeStyle=orthogonalEdgeStyle;align=left;verticalAlign=bottom;rounded=0;exitX=1;exitY=0.5;exitDx=0;exitDy=0;" parent="WIyWlLk6GJQsqaUBKTNV-1" source="2EZz9RA_f9-rvHyePm-9-5" edge="1">
          <mxGeometry x="-1" y="3" relative="1" as="geometry">
            <mxPoint x="30" y="180" as="sourcePoint" />
            <mxPoint x="210" y="180" as="targetPoint" />
          </mxGeometry>
        </mxCell>
        <mxCell id="2EZz9RA_f9-rvHyePm-9-13" value="Server_socket" style="swimlane;fontStyle=1;align=center;verticalAlign=top;childLayout=stackLayout;horizontal=1;startSize=26;horizontalStack=0;resizeParent=1;resizeParentMax=0;resizeLast=0;collapsible=1;marginBottom=0;whiteSpace=wrap;html=1;" parent="WIyWlLk6GJQsqaUBKTNV-1" vertex="1">
          <mxGeometry x="630" y="50" width="260" height="208" as="geometry" />
        </mxCell>
        <mxCell id="2EZz9RA_f9-rvHyePm-9-14" value="&lt;div&gt;using FD = int ;&lt;/div&gt;server_socket(int port)&lt;div&gt;FD wait_next_client()&lt;/div&gt;" style="text;strokeColor=none;fillColor=none;align=left;verticalAlign=top;spacingLeft=4;spacingRight=4;overflow=hidden;rotatable=0;points=[[0,0.5],[1,0.5]];portConstraint=eastwest;whiteSpace=wrap;html=1;" parent="2EZz9RA_f9-rvHyePm-9-13" vertex="1">
          <mxGeometry y="26" width="260" height="84" as="geometry" />
        </mxCell>
        <mxCell id="2EZz9RA_f9-rvHyePm-9-15" value="" style="line;strokeWidth=1;fillColor=none;align=left;verticalAlign=middle;spacingTop=-1;spacingLeft=3;spacingRight=3;rotatable=0;labelPosition=right;points=[];portConstraint=eastwest;strokeColor=inherit;" parent="2EZz9RA_f9-rvHyePm-9-13" vertex="1">
          <mxGeometry y="110" width="260" height="8" as="geometry" />
        </mxCell>
        <mxCell id="2EZz9RA_f9-rvHyePm-9-16" value="int m_id&lt;div&gt;Socket m_server&lt;/div&gt;" style="text;strokeColor=none;fillColor=none;align=left;verticalAlign=top;spacingLeft=4;spacingRight=4;overflow=hidden;rotatable=0;points=[[0,0.5],[1,0.5]];portConstraint=eastwest;whiteSpace=wrap;html=1;" parent="2EZz9RA_f9-rvHyePm-9-13" vertex="1">
          <mxGeometry y="118" width="260" height="90" as="geometry" />
        </mxCell>
        <mxCell id="2EZz9RA_f9-rvHyePm-9-17" value="1" style="endArrow=open;html=1;endSize=12;startArrow=diamondThin;startSize=14;startFill=1;edgeStyle=orthogonalEdgeStyle;align=left;verticalAlign=bottom;rounded=0;entryX=0.996;entryY=0.394;entryDx=0;entryDy=0;entryPerimeter=0;" parent="WIyWlLk6GJQsqaUBKTNV-1" target="zkfFHV4jXpPFQw0GAbJ--3" edge="1">
          <mxGeometry x="0.223" y="10" relative="1" as="geometry">
            <mxPoint x="630" y="130" as="sourcePoint" />
            <mxPoint x="870" y="170" as="targetPoint" />
            <mxPoint as="offset" />
          </mxGeometry>
        </mxCell>
        <mxCell id="2EZz9RA_f9-rvHyePm-9-18" value="Receive_manger" style="swimlane;fontStyle=1;align=center;verticalAlign=top;childLayout=stackLayout;horizontal=1;startSize=26;horizontalStack=0;resizeParent=1;resizeParentMax=0;resizeLast=0;collapsible=1;marginBottom=0;whiteSpace=wrap;html=1;" parent="WIyWlLk6GJQsqaUBKTNV-1" vertex="1">
          <mxGeometry x="1040" y="60" width="270" height="190" as="geometry" />
        </mxCell>
        <mxCell id="2EZz9RA_f9-rvHyePm-9-19" value="&lt;div&gt;&lt;br&gt;&lt;/div&gt;&lt;div&gt;add to map(int FD)&lt;/div&gt;&lt;div&gt;&lt;br&gt;&lt;/div&gt;&lt;div&gt;Socket get_sock(int id)&lt;/div&gt;" style="text;strokeColor=none;fillColor=none;align=left;verticalAlign=top;spacingLeft=4;spacingRight=4;overflow=hidden;rotatable=0;points=[[0,0.5],[1,0.5]];portConstraint=eastwest;whiteSpace=wrap;html=1;" parent="2EZz9RA_f9-rvHyePm-9-18" vertex="1">
          <mxGeometry y="26" width="270" height="94" as="geometry" />
        </mxCell>
        <mxCell id="2EZz9RA_f9-rvHyePm-9-20" value="" style="line;strokeWidth=1;fillColor=none;align=left;verticalAlign=middle;spacingTop=-1;spacingLeft=3;spacingRight=3;rotatable=0;labelPosition=right;points=[];portConstraint=eastwest;strokeColor=inherit;" parent="2EZz9RA_f9-rvHyePm-9-18" vertex="1">
          <mxGeometry y="120" width="270" height="8" as="geometry" />
        </mxCell>
        <mxCell id="2EZz9RA_f9-rvHyePm-9-21" value="unorderd_map&amp;lt;id,Socket&amp;gt;" style="text;strokeColor=none;fillColor=none;align=left;verticalAlign=top;spacingLeft=4;spacingRight=4;overflow=hidden;rotatable=0;points=[[0,0.5],[1,0.5]];portConstraint=eastwest;whiteSpace=wrap;html=1;" parent="2EZz9RA_f9-rvHyePm-9-18" vertex="1">
          <mxGeometry y="128" width="270" height="62" as="geometry" />
        </mxCell>
        <mxCell id="2EZz9RA_f9-rvHyePm-9-22" value="request" style="swimlane;fontStyle=1;align=center;verticalAlign=top;childLayout=stackLayout;horizontal=1;startSize=26;horizontalStack=0;resizeParent=1;resizeParentMax=0;resizeLast=0;collapsible=1;marginBottom=0;whiteSpace=wrap;html=1;" parent="WIyWlLk6GJQsqaUBKTNV-1" vertex="1">
          <mxGeometry x="1420" y="60" width="240" height="164" as="geometry" />
        </mxCell>
        <mxCell id="2EZz9RA_f9-rvHyePm-9-23" value="void recv()&lt;div&gt;&lt;br&gt;&lt;/div&gt;&lt;div&gt;void send()&lt;/div&gt;&lt;div&gt;&lt;br&gt;&lt;/div&gt;&lt;div&gt;// opt other func&lt;/div&gt;" style="text;strokeColor=none;fillColor=none;align=left;verticalAlign=top;spacingLeft=4;spacingRight=4;overflow=hidden;rotatable=0;points=[[0,0.5],[1,0.5]];portConstraint=eastwest;whiteSpace=wrap;html=1;" parent="2EZz9RA_f9-rvHyePm-9-22" vertex="1">
          <mxGeometry y="26" width="240" height="104" as="geometry" />
        </mxCell>
        <mxCell id="2EZz9RA_f9-rvHyePm-9-24" value="" style="line;strokeWidth=1;fillColor=none;align=left;verticalAlign=middle;spacingTop=-1;spacingLeft=3;spacingRight=3;rotatable=0;labelPosition=right;points=[];portConstraint=eastwest;strokeColor=inherit;" parent="2EZz9RA_f9-rvHyePm-9-22" vertex="1">
          <mxGeometry y="130" width="240" height="8" as="geometry" />
        </mxCell>
        <mxCell id="2EZz9RA_f9-rvHyePm-9-25" value="void *date" style="text;strokeColor=none;fillColor=none;align=left;verticalAlign=top;spacingLeft=4;spacingRight=4;overflow=hidden;rotatable=0;points=[[0,0.5],[1,0.5]];portConstraint=eastwest;whiteSpace=wrap;html=1;" parent="2EZz9RA_f9-rvHyePm-9-22" vertex="1">
          <mxGeometry y="138" width="240" height="26" as="geometry" />
        </mxCell>
        <mxCell id="2EZz9RA_f9-rvHyePm-9-26" value="Manger" style="swimlane;fontStyle=1;align=center;verticalAlign=top;childLayout=stackLayout;horizontal=1;startSize=26;horizontalStack=0;resizeParent=1;resizeParentMax=0;resizeLast=0;collapsible=1;marginBottom=0;whiteSpace=wrap;html=1;" parent="WIyWlLk6GJQsqaUBKTNV-1" vertex="1">
          <mxGeometry x="1040" y="320" width="280" height="240" as="geometry" />
        </mxCell>
        <mxCell id="2EZz9RA_f9-rvHyePm-9-27" value="run-server(callback func)&lt;div&gt;&lt;br&gt;&lt;/div&gt;&lt;div&gt;run()&lt;/div&gt;&lt;div&gt;&lt;br&gt;&lt;/div&gt;&lt;div&gt;callback func(int -&amp;gt; add socket)&lt;/div&gt;" style="text;strokeColor=none;fillColor=none;align=left;verticalAlign=top;spacingLeft=4;spacingRight=4;overflow=hidden;rotatable=0;points=[[0,0.5],[1,0.5]];portConstraint=eastwest;whiteSpace=wrap;html=1;" parent="2EZz9RA_f9-rvHyePm-9-26" vertex="1">
          <mxGeometry y="26" width="280" height="114" as="geometry" />
        </mxCell>
        <mxCell id="2EZz9RA_f9-rvHyePm-9-28" value="" style="line;strokeWidth=1;fillColor=none;align=left;verticalAlign=middle;spacingTop=-1;spacingLeft=3;spacingRight=3;rotatable=0;labelPosition=right;points=[];portConstraint=eastwest;strokeColor=inherit;" parent="2EZz9RA_f9-rvHyePm-9-26" vertex="1">
          <mxGeometry y="140" width="280" height="8" as="geometry" />
        </mxCell>
        <mxCell id="2EZz9RA_f9-rvHyePm-9-29" value="Server m_serv&lt;div&gt;&lt;br&gt;&lt;/div&gt;&lt;div&gt;Maeng_connect m_nc&lt;/div&gt;&lt;div&gt;&lt;br&gt;&lt;/div&gt;&lt;div&gt;Mange_req m_mr&lt;/div&gt;" style="text;strokeColor=none;fillColor=none;align=left;verticalAlign=top;spacingLeft=4;spacingRight=4;overflow=hidden;rotatable=0;points=[[0,0.5],[1,0.5]];portConstraint=eastwest;whiteSpace=wrap;html=1;" parent="2EZz9RA_f9-rvHyePm-9-26" vertex="1">
          <mxGeometry y="148" width="280" height="92" as="geometry" />
        </mxCell>
        <mxCell id="2EZz9RA_f9-rvHyePm-9-32" value="1" style="endArrow=open;html=1;endSize=12;startArrow=diamondThin;startSize=14;startFill=1;edgeStyle=orthogonalEdgeStyle;align=left;verticalAlign=bottom;rounded=0;" parent="2EZz9RA_f9-rvHyePm-9-26" edge="1">
          <mxGeometry x="-1" y="3" relative="1" as="geometry">
            <mxPoint x="140" y="220" as="sourcePoint" />
            <mxPoint x="530" y="-90" as="targetPoint" />
          </mxGeometry>
        </mxCell>
        <mxCell id="2EZz9RA_f9-rvHyePm-9-30" value="1" style="endArrow=open;html=1;endSize=12;startArrow=diamondThin;startSize=14;startFill=1;edgeStyle=orthogonalEdgeStyle;align=left;verticalAlign=bottom;rounded=0;exitX=-0.004;exitY=0.152;exitDx=0;exitDy=0;exitPerimeter=0;entryX=0.569;entryY=1.044;entryDx=0;entryDy=0;entryPerimeter=0;" parent="WIyWlLk6GJQsqaUBKTNV-1" source="2EZz9RA_f9-rvHyePm-9-29" target="2EZz9RA_f9-rvHyePm-9-16" edge="1">
          <mxGeometry x="-1" y="3" relative="1" as="geometry">
            <mxPoint x="850" y="370" as="sourcePoint" />
            <mxPoint x="1010" y="370" as="targetPoint" />
            <Array as="points">
              <mxPoint x="770" y="482" />
              <mxPoint x="770" y="270" />
              <mxPoint x="760" y="270" />
              <mxPoint x="760" y="262" />
            </Array>
          </mxGeometry>
        </mxCell>
        <mxCell id="2EZz9RA_f9-rvHyePm-9-31" value="1" style="endArrow=open;html=1;endSize=12;startArrow=diamondThin;startSize=14;startFill=1;edgeStyle=orthogonalEdgeStyle;align=left;verticalAlign=bottom;rounded=0;entryX=1;entryY=0.5;entryDx=0;entryDy=0;" parent="WIyWlLk6GJQsqaUBKTNV-1" target="2EZz9RA_f9-rvHyePm-9-19" edge="1">
          <mxGeometry x="-1" y="3" relative="1" as="geometry">
            <mxPoint x="1290" y="510" as="sourcePoint" />
            <mxPoint x="1370" y="130" as="targetPoint" />
            <Array as="points">
              <mxPoint x="1360" y="510" />
              <mxPoint x="1360" y="133" />
            </Array>
          </mxGeometry>
        </mxCell>
      </root>
    </mxGraphModel>
  </diagram>
</mxfile>
